# xmcd
#
# Track frame offsets:
#	150
#	12428
#	28816
#	43566
#	53723
#	69257
#	82660
#	98962
#	112653
#	129335
#	140419
#
# Disc length: 2038 seconds
#
# Revision: 0
# Processed by: cddbd v1.5.1PL0 Copyright (c) Steve Scherf et al.
# Submitted via: dBpowerAMP V4.0
#
DISCID=8007f40b
DTITLE=Brent Parlane - The Closest
DYEAR=1999
DGENRE=Country
TTITLE0=Here Come The Cowboys
TTITLE1=The Closest
TTITLE2=Walk Like A Man
TTITLE3=Springvale Road
TTITLE4=A Million Years
TTITLE5=I'll Love You
TTITLE6=Mystery To Me
TTITLE7=Take Me Now
TTITLE8=Tex Loves Daisy
TTITLE9=The Blues Song
TTITLE10=To Say Goodbye
EXTD=
EXTT0=
EXTT1=
EXTT2=
EXTT3=
EXTT4=
EXTT5=
EXTT6=
EXTT7=
EXTT8=
EXTT9=
EXTT10=
PLAYORDER=
